<svg width="21" height="19" viewBox="0 0 21 19" fill="none" xmlns="http://www.w3.org/2000/svg">
<rect x="11.3223" y="16.619" width="0.984806" height="1.52823" fill="#2C2C2C"/>
<rect x="10.666" y="7.08554" width="1.52823" height="1.52823" fill="#2C2C2C"/>
<rect x="9.13867" y="5.89639" width="1.52823" height="1.52823" fill="#2C2C2C"/>
<rect x="11.3223" y="5.89639" width="1.52823" height="1.52823" fill="#2C2C2C"/>
<rect x="12.8574" y="5.89639" width="1.52823" height="0.702927" fill="#2C2C2C"/>
<rect x="14.373" y="5.31104" width="1.52823" height="0.702927" fill="#2C2C2C"/>
<rect x="15.8281" y="4.81796" width="1.52823" height="0.702927" fill="#2C2C2C"/>
<rect x="16.9434" y="4.11484" width="1.52823" height="0.702927" fill="#2C2C2C"/>
<rect x="17.918" y="3.41171" width="1.52823" height="0.702927" fill="#2C2C2C"/>
<rect x="18.6836" y="2.43965" width="1.52823" height="0.972307" fill="#2C2C2C"/>
<rect x="11.1484" y="4.36797" width="1.52823" height="1.52823" fill="#2C2C2C"/>
<rect x="11.6465" y="2.83955" width="1.52823" height="1.52823" fill="#2C2C2C"/>
<rect x="12.3574" y="1.31113" width="1.52823" height="1.52823" fill="#2C2C2C"/>
<rect x="13.8867" y="0.682709" width="1.52823" height="1.52823" fill="#2C2C2C"/>
<rect x="15.4141" y="0.147461" width="1.52823" height="1.52823" fill="#2C2C2C"/>
<rect x="16.9434" y="0.388275" width="1.52823" height="1.52823" fill="#2C2C2C"/>
<rect x="18.4062" y="0.911224" width="1.52823" height="1.52823" fill="#2C2C2C"/>
<rect x="7.60938" y="5.05087" width="1.52823" height="1.52823" fill="#2C2C2C"/>
<rect x="6.08203" y="4.54903" width="1.52823" height="1.52823" fill="#2C2C2C"/>
<rect x="4.55273" y="5.31279" width="1.52823" height="1.52823" fill="#2C2C2C"/>
<rect x="3.02539" y="6.38419" width="1.52823" height="1.52823" fill="#2C2C2C"/>
<rect x="1.91016" y="7.9126" width="1.52823" height="1.52823" fill="#2C2C2C"/>
<rect x="1.14453" y="9.44101" width="1.52823" height="1.52823" fill="#2C2C2C"/>
<rect x="3.78906" y="10.3885" width="1.52823" height="0.702927" fill="#2C2C2C"/>
<rect x="3.02539" y="11.0916" width="1.52823" height="0.702927" fill="#2C2C2C"/>
<rect x="5.03516" y="9.74248" width="1.52823" height="0.702927" fill="#2C2C2C"/>
<rect x="6.5625" y="9.23271" width="1.52823" height="0.702927" fill="#2C2C2C"/>
<rect x="8.0918" y="8.54453" width="1.52823" height="0.702927" fill="#2C2C2C"/>
<rect x="9.61914" y="8.21407" width="1.52823" height="0.702927" fill="#2C2C2C"/>
<rect x="1.55859" y="12.497" width="1.52823" height="0.702927" transform="rotate(-90 1.55859 12.497)" fill="#2C2C2C"/>
<rect x="2.26172" y="11.7939" width="1.52823" height="0.702927" fill="#2C2C2C"/>
<rect x="11.7637" y="15.0906" width="1.10574" height="1.52823" fill="#2C2C2C"/>
<rect x="12.1055" y="13.5631" width="0.966781" height="1.52823" fill="#2C2C2C"/>
<rect x="12.1055" y="12.0347" width="0.966781" height="1.52823" fill="#2C2C2C"/>
<rect x="12.1055" y="10.5063" width="0.966781" height="1.52823" fill="#2C2C2C"/>
<rect x="11.1484" y="8.61397" width="1.52823" height="1.91029" fill="#2C2C2C"/>
</svg>


